<svg width="72" height="26" viewBox="0 0 72 26" fill="none" xmlns="http://www.w3.org/2000/svg">
<path d="M64.415 14.018C63.3923 14.018 62.4823 13.7927 61.685 13.342C60.905 12.8913 60.2896 12.2673 59.839 11.47C59.4056 10.6727 59.189 9.77134 59.189 8.76601C59.189 7.76067 59.4056 6.85934 59.839 6.06201C60.2896 5.26467 60.905 4.64067 61.685 4.19001C62.4823 3.72201 63.3923 3.48801 64.415 3.48801C65.4203 3.48801 66.313 3.72201 67.093 4.19001C67.873 4.64067 68.4796 5.26467 68.913 6.06201C69.3636 6.85934 69.589 7.76067 69.589 8.76601C69.589 9.77134 69.3636 10.6727 68.913 11.47C68.4796 12.2673 67.873 12.8913 67.093 13.342C66.313 13.7927 65.4203 14.018 64.415 14.018ZM64.415 13.082C65.663 13.082 66.6683 12.6833 67.431 11.886C68.1936 11.0713 68.575 10.0313 68.575 8.76601C68.575 7.50067 68.1936 6.46934 67.431 5.67201C66.6683 4.85734 65.663 4.45001 64.415 4.45001C63.1323 4.45001 62.1096 4.85734 61.347 5.67201C60.5843 6.46934 60.203 7.50067 60.203 8.76601C60.203 10.0313 60.5843 11.0713 61.347 11.886C62.1096 12.6833 63.1323 13.082 64.415 13.082ZM62.335 11.522V5.93201H64.805C65.3943 5.93201 65.8536 6.08801 66.183 6.40001C66.5296 6.69467 66.703 7.11067 66.703 7.64801C66.703 8.06401 66.5816 8.41934 66.339 8.71401C66.1136 8.99134 65.8016 9.18201 65.403 9.28601L66.911 11.496L65.455 11.522L64.103 9.33801H63.557V11.522H62.335ZM63.557 8.35001H64.701C64.9263 8.35001 65.1083 8.29801 65.247 8.19401C65.403 8.09001 65.481 7.91667 65.481 7.67401C65.481 7.44867 65.403 7.28401 65.247 7.18001C65.1083 7.07601 64.9263 7.02401 64.701 7.02401H63.557V8.35001Z" fill="#18212D"/>
<path d="M50.8546 22.312C49.7799 22.312 48.8872 22.13 48.1766 21.766C47.4659 21.402 46.9372 20.9167 46.5906 20.31C46.2439 19.7033 46.0706 19.0447 46.0706 18.334C46.0706 17.0167 46.5732 16.0027 47.5786 15.292C48.5839 14.5813 49.9532 14.226 51.6866 14.226H55.1706V14.07C55.1706 12.9433 54.8759 12.094 54.2866 11.522C53.6972 10.9327 52.9086 10.638 51.9206 10.638C51.0712 10.638 50.3346 10.8547 49.7106 11.288C49.1039 11.704 48.7226 12.3193 48.5666 13.134H46.3306C46.4172 12.198 46.7292 11.4093 47.2666 10.768C47.8212 10.1267 48.5059 9.64133 49.3206 9.31199C50.1352 8.96533 51.0019 8.79199 51.9206 8.79199C53.7232 8.79199 55.0752 9.27732 55.9766 10.248C56.8952 11.2013 57.3546 12.4753 57.3546 14.07V22H55.4046L55.2746 19.686C54.9106 20.414 54.3732 21.038 53.6626 21.558C52.9692 22.0607 52.0332 22.312 50.8546 22.312ZM51.1926 20.466C52.0246 20.466 52.7352 20.2493 53.3246 19.816C53.9312 19.3827 54.3906 18.8193 54.7026 18.126C55.0146 17.4327 55.1706 16.7047 55.1706 15.942V15.916H51.8686C50.5859 15.916 49.6759 16.1413 49.1386 16.592C48.6186 17.0253 48.3586 17.5713 48.3586 18.23C48.3586 18.906 48.6012 19.452 49.0866 19.868C49.5892 20.2667 50.2912 20.466 51.1926 20.466Z" fill="#18212D"/>
<path d="M39.5046 22.312C37.9619 22.312 36.6792 21.922 35.6566 21.142C34.6339 20.362 34.0359 19.3047 33.8625 17.97H36.0985C36.2372 18.646 36.5926 19.2353 37.1646 19.738C37.7539 20.2233 38.5426 20.466 39.5306 20.466C40.4492 20.466 41.1252 20.2753 41.5586 19.894C41.9919 19.4953 42.2085 19.0273 42.2085 18.49C42.2085 17.71 41.9226 17.19 41.3506 16.93C40.7959 16.67 40.0072 16.436 38.9846 16.228C38.2912 16.0893 37.5979 15.89 36.9045 15.63C36.2112 15.37 35.6305 15.006 35.1625 14.538C34.6945 14.0527 34.4605 13.42 34.4605 12.64C34.4605 11.5133 34.8765 10.5947 35.7085 9.88399C36.5579 9.15599 37.7019 8.79199 39.1405 8.79199C40.5099 8.79199 41.6279 9.13866 42.4945 9.83199C43.3785 10.508 43.8899 11.4787 44.0285 12.744H41.8706C41.7839 12.0853 41.4979 11.574 41.0126 11.21C40.5446 10.8287 39.9119 10.638 39.1146 10.638C38.3346 10.638 37.7279 10.8027 37.2946 11.132C36.8786 11.4613 36.6706 11.8947 36.6706 12.432C36.6706 12.952 36.9392 13.3593 37.4766 13.654C38.0312 13.9487 38.7766 14.2 39.7126 14.408C40.5099 14.5813 41.2639 14.798 41.9745 15.058C42.7025 15.3007 43.2919 15.6733 43.7425 16.176C44.2106 16.6613 44.4445 17.372 44.4445 18.308C44.4619 19.4693 44.0199 20.4313 43.1185 21.194C42.2345 21.9393 41.0299 22.312 39.5046 22.312Z" fill="#18212D"/>
<path d="M29.8008 22V3.28H31.9848V22H29.8008Z" fill="#18212D"/>
<path d="M21.0245 22.312C19.9498 22.312 19.0571 22.13 18.3465 21.766C17.6358 21.402 17.1071 20.9167 16.7605 20.31C16.4138 19.7033 16.2405 19.0447 16.2405 18.334C16.2405 17.0167 16.7431 16.0027 17.7485 15.292C18.7538 14.5813 20.1231 14.226 21.8565 14.226H25.3405V14.07C25.3405 12.9433 25.0458 12.094 24.4565 11.522C23.8671 10.9327 23.0785 10.638 22.0905 10.638C21.2411 10.638 20.5045 10.8547 19.8805 11.288C19.2738 11.704 18.8925 12.3193 18.7365 13.134H16.5005C16.5871 12.198 16.8991 11.4093 17.4365 10.768C17.9911 10.1267 18.6758 9.64133 19.4905 9.31199C20.3051 8.96533 21.1718 8.79199 22.0905 8.79199C23.8931 8.79199 25.2451 9.27732 26.1465 10.248C27.0651 11.2013 27.5245 12.4753 27.5245 14.07V22H25.5745L25.4445 19.686C25.0805 20.414 24.5431 21.038 23.8325 21.558C23.1391 22.0607 22.2031 22.312 21.0245 22.312ZM21.3625 20.466C22.1945 20.466 22.9051 20.2493 23.4945 19.816C24.1011 19.3827 24.5605 18.8193 24.8725 18.126C25.1845 17.4327 25.3405 16.7047 25.3405 15.942V15.916H22.0385C20.7558 15.916 19.8458 16.1413 19.3085 16.592C18.7885 17.0253 18.5285 17.5713 18.5285 18.23C18.5285 18.906 18.7711 19.452 19.2565 19.868C19.7591 20.2667 20.4611 20.466 21.3625 20.466Z" fill="#18212D"/>
<path d="M2.85547 22V3.28H5.03947V11.314C5.4728 10.5167 6.08814 9.90133 6.88547 9.468C7.6828 9.01733 8.54947 8.792 9.48547 8.792C10.9761 8.792 12.1721 9.26 13.0735 10.196C13.9748 11.1147 14.4255 12.536 14.4255 14.46V22H12.2675V14.694C12.2675 12.0073 11.1841 10.664 9.01747 10.664C7.8908 10.664 6.94614 11.0713 6.18347 11.886C5.4208 12.6833 5.03947 13.8273 5.03947 15.318V22H2.85547Z" fill="#18212D"/>
</svg>
